<?xml version="1.0" encoding="UTF-8"?>
<svg width="43px" height="43px" viewBox="0 0 43 43" version="1.1" xmlns="http://www.w3.org/2000/svg" xmlns:xlink="http://www.w3.org/1999/xlink">
    <!-- Generator: Sketch 64 (93537) - https://sketch.com -->
    <title>合并形状</title>
    <desc>Created with Sketch.</desc>
    <g id="页面-1" stroke="none" stroke-width="1" fill="none" fill-rule="evenodd">
        <g id="门户首页" transform="translate(-944.000000, -3648.000000)" fill="#004AFF">
            <g id="编组-11" transform="translate(360.000000, 3041.000000)">
                <g id="编组-9" transform="translate(24.000000, 99.000000)">
                    <g id="编组-7" transform="translate(44.038495, 462.000000)">
                        <g id="编组-4" transform="translate(465.157219, 45.080994)">
                            <g id="bofang" transform="translate(50.064618, 0.000000)">
                                <path d="M22.2396676,0.919005511 C34.0646676,0.919005511 43.7396676,10.5940055 43.7396676,22.4190055 C43.7396676,34.2440055 34.0646676,43.9190055 22.2396676,43.9190055 C10.4146676,43.9190055 0.739667578,34.2440055 0.739667578,22.4190055 C0.739667578,10.5940055 10.4146676,0.919005511 22.2396676,0.919005511 Z M22.2396676,2.91900551 C11.364239,2.91900551 2.73966758,11.5658627 2.73966758,22.4190055 C2.73966758,33.2721484 11.3865247,41.9190055 22.2396676,41.9190055 C33.0928104,41.9190055 41.7396676,33.2721484 41.7396676,22.4190055 C41.7396676,11.5658627 33.1150961,2.91900551 22.2396676,2.91900551 Z M14.7396676,12.9190055 L33.7396676,22.9190055 L14.7396676,32.9190055 L14.7396676,12.9190055 Z" id="合并形状"></path>
                            </g>
                        </g>
                    </g>
                </g>
            </g>
        </g>
    </g>
</svg>