<?xml version="1.0" standalone="no"?><!DOCTYPE svg PUBLIC "-//W3C//DTD SVG 1.1//EN" "http://www.w3.org/Graphics/SVG/1.1/DTD/svg11.dtd"><svg t="1614850370029" class="icon" viewBox="0 0 1024 1024" version="1.1" xmlns="http://www.w3.org/2000/svg" p-id="1009" xmlns:xlink="http://www.w3.org/1999/xlink" width="200" height="200"><defs><style type="text/css"></style></defs><path d="M838.695 374.154A354.62 354.62 0 0 0 512 157.538a354.462 354.462 0 1 0 0 708.924A354.58 354.58 0 0 0 842.161 641.26a39.385 39.385 0 1 1 73.334 28.751A433.31 433.31 0 0 1 512 945.231C272.738 945.23 78.77 751.26 78.77 512S272.737 78.77 512 78.77c144.423 0 275.14 71.285 354.462 183.965V177.23a39.385 39.385 0 0 1 78.769 0v236.307a39.266 39.266 0 0 1-39.385 39.385H708.923a39.385 39.385 0 0 1 0-78.77h129.772z" p-id="1010"></path></svg>